<svg xmlns="http://www.w3.org/2000/svg" viewBox="0 0 679.09 119.96"><defs><style>.cls-1{fill:#f8f9fa;}</style></defs><g id="レイヤー_2" data-name="レイヤー 2"><g id="レイヤー_1-2" data-name="レイヤー 1"><path class="cls-1" d="M67.8,117.81H50.32V106H50a23.89,23.89,0,0,1-8.51,9.74A24.54,24.54,0,0,1,27.15,120a27.68,27.68,0,0,1-12.35-2.53,24.33,24.33,0,0,1-8.43-6.67,27.18,27.18,0,0,1-4.84-9.51A40.22,40.22,0,0,1,0,90.2v-46H18.41V85a51.63,51.63,0,0,0,.46,6.75,18.29,18.29,0,0,0,2,6.37,13.25,13.25,0,0,0,4.22,4.68,12.46,12.46,0,0,0,7.13,1.84,15.89,15.89,0,0,0,13-6.29A19.86,19.86,0,0,0,48.32,92a25.23,25.23,0,0,0,1.08-7.28V44.18H67.8Z"/><path class="cls-1" d="M89.89,44.18h17.49V56h.31a23.74,23.74,0,0,1,8.51-9.74A24.48,24.48,0,0,1,130.54,42a27.81,27.81,0,0,1,12.35,2.53,24.39,24.39,0,0,1,8.44,6.68,26.9,26.9,0,0,1,4.83,9.51,40.1,40.1,0,0,1,1.54,11v46H139.29V77a53.43,53.43,0,0,0-.46-6.75,18.44,18.44,0,0,0-2-6.37,13.25,13.25,0,0,0-4.22-4.68,12.44,12.44,0,0,0-7.13-1.84,15.69,15.69,0,0,0-7.67,1.77,16.17,16.17,0,0,0-5.29,4.52A20.19,20.19,0,0,0,109.37,70a25.56,25.56,0,0,0-1.07,7.28v40.5H89.89Z"/><path class="cls-1" d="M174.87,80.69A38.91,38.91,0,0,1,178,64.81a37,37,0,0,1,8.51-12.19,37.48,37.48,0,0,1,12.74-7.83,45.72,45.72,0,0,1,31.29,0,37.44,37.44,0,0,1,12.73,7.83,37,37,0,0,1,8.51,12.19A38.91,38.91,0,0,1,255,80.69a39.38,39.38,0,0,1-3.15,16A37.57,37.57,0,0,1,243.29,109,38.74,38.74,0,0,1,230.56,117a43.37,43.37,0,0,1-31.29,0A38.79,38.79,0,0,1,186.53,109,37.57,37.57,0,0,1,178,96.64,39.38,39.38,0,0,1,174.87,80.69Zm18.72,0a29.41,29.41,0,0,0,1.3,8.59A23.5,23.5,0,0,0,198.81,97a20.32,20.32,0,0,0,6.59,5.52,22.11,22.11,0,0,0,19,0A20.46,20.46,0,0,0,231,97a23.67,23.67,0,0,0,3.91-7.67,29.41,29.41,0,0,0,1.3-8.59,28.64,28.64,0,0,0-1.3-8.51,23.73,23.73,0,0,0-3.91-7.6,19.64,19.64,0,0,0-6.6-5.44,22.78,22.78,0,0,0-19,0,19.51,19.51,0,0,0-6.59,5.44,23.56,23.56,0,0,0-3.92,7.6A28.64,28.64,0,0,0,193.59,80.69Z"/><path class="cls-1" d="M275.66,58.91h-14V44.18h14V33.29a54.05,54.05,0,0,1,1.45-12.66A28.74,28.74,0,0,1,282,10a24,24,0,0,1,9.13-7.29Q296.82,0,305.42,0a48.45,48.45,0,0,1,5.13.23,26,26,0,0,1,4.22.84l-1.22,15.65a29.63,29.63,0,0,0-3.3-.77,22.47,22.47,0,0,0-3.76-.3,12,12,0,0,0-6.44,1.53,10.35,10.35,0,0,0-3.76,4,17.14,17.14,0,0,0-1.77,5.37,37.12,37.12,0,0,0-.46,5.67v12h17V58.91h-17v58.9h-18.4Z"/><path class="cls-1" d="M325.36,58.91h-14V44.18h14V33.29a54.05,54.05,0,0,1,1.45-12.66A28.74,28.74,0,0,1,331.72,10a24,24,0,0,1,9.13-7.29Q346.52,0,355.12,0a48.79,48.79,0,0,1,5.14.23,26.47,26.47,0,0,1,4.22.84l-1.23,15.65A29.12,29.12,0,0,0,360,16a22.47,22.47,0,0,0-3.76-.3,12,12,0,0,0-6.44,1.53,10.35,10.35,0,0,0-3.76,4,16.88,16.88,0,0,0-1.76,5.37,35.9,35.9,0,0,0-.46,5.67v12h17V58.91h-17v58.9H325.36Zm46.33-39.73A10.59,10.59,0,0,1,375,11.43a11.33,11.33,0,0,1,8.36-3.3,12.2,12.2,0,0,1,8.52,3.14,10.26,10.26,0,0,1,3.45,7.91,10.24,10.24,0,0,1-3.45,7.9,12.2,12.2,0,0,1-8.52,3.14,11.33,11.33,0,0,1-8.36-3.3A10.59,10.59,0,0,1,371.69,19.18Zm2.6,25H392.7v73.63H374.29Z"/><path class="cls-1" d="M463.72,64.58a16.27,16.27,0,0,0-6.44-5.14,19.94,19.94,0,0,0-8.74-2.07,18.42,18.42,0,0,0-8.9,2.07,19.33,19.33,0,0,0-6.37,5.45,23.65,23.65,0,0,0-3.76,7.59A30.68,30.68,0,0,0,428.29,81a28.64,28.64,0,0,0,1.3,8.51,23.79,23.79,0,0,0,3.91,7.59,20,20,0,0,0,6.52,5.45,19.25,19.25,0,0,0,9.13,2.07,23.24,23.24,0,0,0,8.59-1.69A16.42,16.42,0,0,0,464.65,98l11.5,11.66a30.3,30.3,0,0,1-11.74,7.59A43.36,43.36,0,0,1,449,120a45.36,45.36,0,0,1-15.42-2.61,36,36,0,0,1-21.32-19.94A40.64,40.64,0,0,1,409.11,81a39.85,39.85,0,0,1,3.15-16.11,36.72,36.72,0,0,1,8.51-12.27,38,38,0,0,1,12.5-7.83,42.67,42.67,0,0,1,31,.31,29.79,29.79,0,0,1,12,8.44Z"/><path class="cls-1" d="M486,19.18a10.59,10.59,0,0,1,3.29-7.75,11.33,11.33,0,0,1,8.36-3.3,12.2,12.2,0,0,1,8.52,3.14,10.26,10.26,0,0,1,3.45,7.91,10.24,10.24,0,0,1-3.45,7.9,12.2,12.2,0,0,1-8.52,3.14,11.33,11.33,0,0,1-8.36-3.3A10.59,10.59,0,0,1,486,19.18Zm2.6,25H507v73.63H488.57Z"/><path class="cls-1" d="M575.09,108.46h-.46a20.58,20.58,0,0,1-8.9,8.05,30.24,30.24,0,0,1-14,3.14,39.91,39.91,0,0,1-9.28-1.15,27.33,27.33,0,0,1-8.89-3.83,22.18,22.18,0,0,1-6.76-7.06,20.31,20.31,0,0,1-2.68-10.82q0-8.28,4.68-13.19a30.27,30.27,0,0,1,12-7.51,67.75,67.75,0,0,1,16.34-3.45q9-.86,17.56-.85V70q0-6.9-5-10.2a21.07,21.07,0,0,0-11.89-3.3,26.58,26.58,0,0,0-11.2,2.46,30.17,30.17,0,0,0-8.9,6l-9.51-11.2A41.58,41.58,0,0,1,542.8,45,49.24,49.24,0,0,1,559.44,42q9.82,0,16.19,2.76a26.37,26.37,0,0,1,10,7.21,25.73,25.73,0,0,1,5.14,10,43.3,43.3,0,0,1,1.46,11v44.79H575.09Zm-.31-24.24h-4.14c-3,0-6.08.13-9.36.38a41,41,0,0,0-9,1.69,19.4,19.4,0,0,0-6.9,3.68,8.16,8.16,0,0,0-2.76,6.52,7.79,7.79,0,0,0,1.15,4.37,8.84,8.84,0,0,0,3,2.84,13.13,13.13,0,0,0,4.14,1.53,23.23,23.23,0,0,0,4.6.46q9.51,0,14.42-5.06t4.91-13.8Z"/><path class="cls-1" d="M614.05,1.84h18.41v116H614.05Z"/><path class="cls-1" d="M654.55,55.22a11.39,11.39,0,0,1,3.6-8.43,12,12,0,0,1,8.67-3.53,12.37,12.37,0,0,1,8.59,3.37,10.83,10.83,0,0,1,3.68,8.29,11.42,11.42,0,0,1-3.6,8.44A12.41,12.41,0,0,1,662.14,66a13.28,13.28,0,0,1-3.91-2.45,11.41,11.41,0,0,1-2.69-3.68A10.88,10.88,0,0,1,654.55,55.22Zm0,51.85a11.39,11.39,0,0,1,3.6-8.43,11.93,11.93,0,0,1,8.67-3.53,12.32,12.32,0,0,1,8.59,3.37,10.82,10.82,0,0,1,3.68,8.29,11.39,11.39,0,0,1-3.6,8.43,11.94,11.94,0,0,1-8.67,3.53,12.17,12.17,0,0,1-4.68-.92,13.28,13.28,0,0,1-3.91-2.45,11.41,11.41,0,0,1-2.69-3.68A10.88,10.88,0,0,1,654.55,107.07Z"/></g></g></svg>